<?xml version="1.0" encoding="UTF-8"?>
<svg id="Layer_1" data-name="Layer 1" xmlns="http://www.w3.org/2000/svg" viewBox="0 0 491.5755 324.9306">
  <path fill="#ffffff" d="M491.5755,114.0164l-34.5651-31.0357c-24.0708,62.4244-61.4596,158.5902-81.1775,209.7673-3.0588,7.6943-6.1648,16.0473-12.0001,21.6238-9.9061,9.459-27.1768,7.8119-34.9415-3.4589-6.5413-9.5765-8.8707-18.9883-15.1531-34.4238-5.4354-14.0709-10.7766-27.9063-16.3061-42.2594-4.7766-12.3531-9.6942-25.0592-14.6591-37.9299,0,.0236-.0236.0236-.0236.0236-10.2825-26.6356-20.4473-52.9418-29.9297-77.4833-5.4589-13.7414-8.8707-24.6828-15.0825-37.3418-13.6473-28.0003-41.5064-50.5182-73.2951-55.8124C83.2411,11.5446,27.8522,67.0041,24.5816,147.4522c-4.1648,57.1536,14.9413,122.8486,71.5773,145.2253,30.1651,12.0943,67.6714,11.5767,96.8248-2.2118,3.7647-1.8352,7.3648-3.9059,10.8001-6.2588,10.1179-6.6825,17.7179-16.3767,25.6239-25.1533,4.7295-5.2942,18.8709-21.3179,23.4826-14.3061,4.1413,9.6473-2.447,22.0004-7.9059,30.5652-17.1531,26.0708-46.7771,42.5652-77.4362,47.4358C64.535,339.1252-1.6305,261.1477.0401,161.8523-1.8658,62.9805,64.2997-14.3381,166.254,2.2503c36.9415,5.8355,71.2714,30.6828,88.0717,62.895,10.1177,18.2825,13.6236,31.9532,22.2826,53.5065,4.5177,11.5295,9.2707,23.7414,14.1885,36.3768.047-.0234.0705-.047.1176-.0705,17.2707,44.5182,34.8475,89.8364,49.53,126.8486,2.6824,5.6001,6.6825,18.4945,12.0472,6.8237,21.4355-50.6595,60.1419-153.6725,83.7187-213.7908l-45.5535-1.8118L476.6106,6.1092l14.9649,107.9072Z"/>
</svg>