<?xml version="1.0" encoding="UTF-8"?>
<svg id="Layer_1" data-name="Layer 1" xmlns="http://www.w3.org/2000/svg" viewBox="0 0 1019.9113 566.7397">
  <path fill="#FFFFFF" d="M551.1037,166.6218c-12.8789-4.5402-26.7228-7.0355-41.1551-7.0355-68.3626,0-123.7814,55.4188-123.7814,123.7814s55.4188,123.7813,123.7814,123.7813,123.7811-55.4189,123.7811-123.7813c0-11.9338-1.7229-23.4587-4.8746-34.3775-9.4009,22.201-31.389,37.7773-57.0159,37.7773-34.1814,0-61.8907-27.7095-61.8907-61.8907,0-26.8964,17.1882-49.7202,41.1551-58.2549Z"/>
  <path fill="#FFFFFF" d="M796.4742,284.9801c1.2985-7.1928,1.6964-14.0264,1.1965-20.5015.4864-17.3359-8.0785-32.715-21.5289-44.5026-2.2098-2.1954-4.5519-4.3377-7.0729-6.4078-28.1843-22.9489-60.7542-40.6281-96.3159-51.5757.2581.3602.5005.7322.7562,1.0944-.2548-.0793-.502-.1749-.7572-.2536,1.3069,1.8245,2.5841,3.6719,3.8306,5.5413,20.439,30.6521,30.5793,66.3015,30.7785,102.3863.0004.3042-.0172.6086-.0182.9128.0025,3.0099-.0649,6.0223-.2003,9.035-.8796,17.8716-4.1802,35.7373-9.8825,53.0422-23.2842,70.662-71.4194,125.3351-151.7668,141.3862-51.3495,9.7914-103.9016-1.6397-153.3076-16.1536-111.6231-31.1118-206.2642-95.799-282.6588-181.7443l69.3361-60.2454c4.9808-29.9707,16.3138-62.6014,34.0677-94.5517,15.0256-27.0402,32.8961-50.4329,51.8643-69.1516-.6078.3563-1.2678.7456-1.9283,1.1349.6458-.6508,1.2818-1.3391,1.9302-1.979-25.8307,15.1406-100.4231,60.8475-126.7637,79.5554C55.4175,190.6815,0,276.968,0,276.968c.0982.1306.1992.2592.2974.3897-.1761.27-.2974.4567-.2974.4567,84.8238,112.8561,199.0477,209.2427,333.0287,258.4512,44.8809,16.0822,93.1667,27.1155,141.6274,29.7905,2.5851.1525,5.1702.2789,7.7552.3802,1.277.0464,2.5529.105,3.8297.1394,4.6835.1368,9.3646.1913,14.0408.1509.1171-.001.2341.0015.3511.0004,4.3254-.0417,8.6447-.1793,12.9586-.3793,2.658-.1147,5.3097-.2901,7.9631-.4621,1.0701-.0747,2.1408-.1434,3.2099-.2285,17.7548-1.3079,35.39-3.8386,52.7284-7.9269,132.1348-33.9436,203.853-140.7938,218.846-271.059.0648-.5617.0793-1.1284.1353-1.6912Z"/>
  <path fill="#FFFFFF" d="M1019.9113,288.93c-84.8229-112.8569-199.0461-209.2446-333.0266-258.4541-44.8745-16.0804-93.1533-27.1135-141.6068-29.7908-2.5978-.1534-5.1952-.2806-7.7927-.3823-1.2679-.046-2.5349-.1041-3.8026-.1386-4.6934-.1371-9.3849-.1917-14.071-.1511-.1081.0009-.2158-.0015-.3239-.0004-4.3282.0415-8.6506.1793-12.9673.3796-2.6513.1145-5.2964.2892-7.9432.4606-1.0798.0753-2.1608.1447-3.2396.2305-17.7508,1.3082-35.3821,3.8385-52.7168,7.9258-132.1349,33.9426-203.8542,140.7921-218.8483,271.0571-.0649.5648-.0799,1.1346-.1361,1.7007-1.2974,7.1898-1.6953,14.0206-1.1959,20.4932-.4854,17.3021,8.0473,32.6535,21.4527,44.4318,2.2313,2.222,4.6002,4.3884,7.1499,6.4819,28.1842,22.9486,60.7543,40.6276,96.3163,51.5748-.2587-.3613-.5015-.7341-.758-1.097.2548.0792.502.1751.757.2535-1.3071-1.8246-2.5841-3.6718-3.8306-5.5413-20.4378-30.6509-30.5776-66.2983-30.7775-102.3815-.0004-.3449.0191-.6902.0205-1.0353-.0008-2.9694.0643-5.9411.198-8.913.8794-17.8722,4.1796-35.7383,9.8819-53.0436,23.2836-70.6622,71.4183-125.3358,151.7657-141.3875,51.3495-9.7919,103.9016,1.6389,153.3077,16.1523,111.625,31.1113,206.2675,95.7992,282.6636,181.7458l-69.34,60.2476c-4.981,29.9706-16.3142,62.6014-34.0685,94.5515-15.0258,27.04-32.8965,50.4327-51.8647,69.1511.6072-.3558,1.267-.7448,1.9269-1.1338-.6441.649-1.2783,1.3355-1.925,1.9738,25.8307-15.1408,100.4227-60.8484,126.763-79.5564,82.6151-58.6805,138.0319-144.9674,138.0319-144.9674-.0972-.1291-.1971-.2565-.2943-.3856.1745-.2673.2943-.4521.2943-.4521Z"/>
</svg>