<?xml version="1.0" encoding="UTF-8"?>
<svg id="Layer_1" xmlns="http://www.w3.org/2000/svg" version="1.1" viewBox="0 0 600 151.7">
  <!-- Generator: Adobe Illustrator 29.3.1, SVG Export Plug-In . SVG Version: 2.1.0 Build 151)  -->
  <defs>
    <style>
      .st0 {
        fill: #806e49;
      }

      .st1 {
        fill: #ffffff;
      }

      .st2 {
        opacity: 1;
      }
    </style>
  </defs>
  <g class="st2">
    <path class="st1" d="M217.8,38.7h9.3l34,37.9v-37.9h9.2v60.5h-6.3l-36.9-41.8v40.9h-9.2v-59.6Z"/>
    <path class="st1" d="M303.2,38.7h14.6v43.8c0,2.4-.4,4.7-1.3,6.7-.9,2-2.2,3.8-4,5.3-1.8,1.5-4,2.6-6.7,3.5-2.7.8-5.8,1.3-9.4,1.3s-3.9-.2-5.6-.5c-1.7-.4-3.3-.8-4.8-1.4-1.5-.6-2.8-1.2-4.1-2-1.3-.7-2.5-1.5-3.7-2.2l4.1-5.2c.6.6,1.4,1.2,2.2,1.8.9.6,1.9,1.2,2.9,1.7,1.1.5,2.2.9,3.5,1.2s2.5.5,3.8.5c2.6,0,4.6-.7,6.1-2,1.5-1.4,2.2-3.2,2.2-5.5v-46.9Z"/>
    <path class="st1" d="M386.6,38.7l-41.3,53.5h39.1v6.1h-58.3v-2.8l39.7-51.3h-36.8v-5.6h57.7Z"/>
    <path class="st1" d="M422.1,37.4l27.9,60.9h-14.9l-7.4-16.3h-23.1l-7.8,16.3h-10l29.1-60.9h6.3ZM407.3,76.5h17.9l-8.8-19.2-9.1,19.2Z"/>
    <path class="st1" d="M485.5,37.4l27.9,60.9h-14.9l-7.4-16.3h-23.1l-7.8,16.3h-10l29.1-60.9h6.3ZM470.6,76.5h17.9l-8.8-19.2-9.1,19.2Z"/>
    <path class="st1" d="M520.8,38.7h25.6c3.4,0,6.6.4,9.4,1.1,2.9.7,5.3,1.8,7.4,3.1,2.1,1.3,3.6,2.9,4.8,4.8,1.1,1.9,1.7,3.9,1.7,6.2s-.2,2.7-.5,3.9c-.3,1.2-.8,2.3-1.5,3.4-.7,1.1-1.6,2.1-2.8,3.1s-2.6,2-4.3,2.9c1.8.6,3.4,1.3,4.8,2.2,1.5.9,2.7,2,3.8,3.2,1.1,1.2,1.9,2.6,2.5,4.1.6,1.5.9,3.1.9,4.8s-.5,4.5-1.6,6.5-2.6,3.8-4.6,5.3c-2,1.5-4.3,2.7-7.1,3.6-2.8.9-5.8,1.3-9.2,1.3h-29.3v-59.6ZM535.4,64.6h9.7c1.5,0,2.9-.2,4.1-.7,1.2-.5,2.2-1.2,3.1-2,.8-.9,1.5-1.9,1.9-3.1.4-1.2.7-2.5.7-3.9s-.3-3-.8-4.2c-.5-1.3-1.4-2.4-2.5-3.3-1.1-.9-2.6-1.6-4.4-2.2-1.8-.5-3.8-.8-6.3-.8h-5.5v20.3ZM535.4,92.2h8.1c2.4,0,4.4-.3,6.2-.8,1.7-.5,3.2-1.2,4.3-2.1,1.1-.9,2-2,2.5-3.2.6-1.2.8-2.6.8-4.1s-.2-3.2-.7-4.6c-.5-1.4-1.3-2.7-2.4-3.7-1.1-1-2.6-1.9-4.4-2.5-1.8-.6-4.1-.9-6.7-.9h-7.6v21.9Z"/>
    <path class="st1" d="M585.4,38.7h14.6v59.6h-14.6v-59.6Z"/>
  </g>
  <g class="st2">
    <path class="st1" d="M323,128.6h5.2v2h-7.7v-15.4h2.5v13.4Z"/>
    <path class="st1" d="M349.6,127.5h-6.5l-1.1,3.1h-2.6l5.5-15.4h2.9l5.5,15.4h-2.7l-1.1-3.1ZM348.9,125.4l-2.5-7.2-2.5,7.2h5Z"/>
    <path class="st1" d="M385.8,115.2l-4.6,15.4h-2.9l-3.2-11.7-3.4,11.7h-2.8s-4.4-15.4-4.4-15.4h2.7l3.2,12.5,3.5-12.5h2.8l3.2,12.5,3.2-12.5h2.7Z"/>
    <path class="st1" d="M422.7,115.2v2.1h-6.5v4.5h5.1v2.1h-5.1v6.7h-2.5v-15.4h9.1Z"/>
    <path class="st1" d="M437.5,115.2v15.4h-2.5v-15.4h2.5Z"/>
    <path class="st1" d="M458.8,130.6l-3.5-6.2h-1.9v6.2h-2.5v-15.4h5.3c1.2,0,2.2.2,3,.6.8.4,1.4,1,1.8,1.7.4.7.6,1.5.6,2.3s-.3,1.9-.9,2.7c-.6.8-1.5,1.4-2.7,1.7l3.8,6.4h-3ZM453.4,122.4h2.8c.9,0,1.7-.2,2.1-.7.5-.5.7-1.1.7-1.9s-.2-1.4-.7-1.9c-.5-.5-1.2-.7-2.2-.7h-2.8v5.2Z"/>
    <path class="st1" d="M491.1,115.2v15.4h-2.5v-10.6l-4.7,10.6h-1.7l-4.7-10.6v10.6h-2.5v-15.4h2.7l5.4,12.1,5.4-12.1h2.7Z"/>
  </g>
  <g>
    <g>
      <g>
        <g>
          <rect class="st0" x="77.1" y="73.6" width="9.1" height="62.5"/>
          <rect class="st0" x="90.5" y="73.6" width="9.1" height="62.5"/>
          <polyline class="st0" points="112.5 136.1 112.5 73.6 103.4 73.6 103.4 136.1"/>
        </g>
        <path class="st0" d="M137.9,48.4H51.7c-7.3,0-13.3,6-13.3,13.3s6,13.3,13.3,13.3,13.3-6,13.3-13.3h-8.2c0,2.8-2.3,5.1-5.1,5.1s-5.1-2.3-5.1-5.1,2.3-5.1,5.1-5.1h86.2c2.8,0,5.1,2.3,5.1,5.1s-2.3,5.1-5.1,5.1-5.1-2.3-5.1-5.1h-8.2c0,7.3,6,13.3,13.3,13.3s13.3-6,13.3-13.3-6-13.3-13.3-13.3Z"/>
        <polygon class="st0" points="120.7 61.1 70.2 61.1 76.5 69.3 114.4 69.3 120.7 61.1"/>
        <polygon class="st0" points="114.4 35.7 110.5 35.7 107.4 31.7 83.5 31.7 80.4 35.7 76.5 35.7 70.2 43.9 120.7 43.9 114.4 35.7"/>
      </g>
      <g>
        <path class="st0" d="M148.2,94h-3.5l-6.3-16.7c0-.2-.2-.3-.3-.3,0,0-.2,0-.3,0-.2,0-.4.2-.5.4,0,0,0,0,0,0l-6.3,16.7h-3.5s0,0,0,0c0,5.7,4.6,10.3,10.3,10.3s10.3-4.6,10.3-10.3,0,0,0,0ZM143.8,94h-5.4v-14.4l5.4,14.4ZM137.4,80v14h-5.3l5.3-14Z"/>
        <path class="st0" d="M62,94h-3.5l-6.3-16.7c0-.2-.2-.3-.3-.3,0,0-.2,0-.3,0-.2,0-.4.2-.5.4,0,0,0,0,0,0l-6.3,16.7h-3.5s0,0,0,0c0,5.7,4.6,10.3,10.3,10.3s10.3-4.6,10.3-10.3,0,0,0,0ZM57.5,94h-5.4v-14.4l5.4,14.4ZM51.2,80v14h-5.3l5.3-14Z"/>
      </g>
    </g>
    <g>
      <path class="st0" d="M29.4,136.1h2.6c-1.4-1.6-2.9-3.2-4.2-4.9,1.2-1.3,2-2.9,2.3-4.7.4-2.1,0-3.9-.7-5.5-1.6,1.2-2.8,3-3.2,5.1-.2,1.1-.2,2.1,0,3.2-1.4-1.8-2.6-3.7-3.8-5.7.5-.5,1-1,1.5-1.6.6-.8,1-1.8,1.3-2.8.3-1,.4-2,.4-2.9,0-.9-.2-1.8-.5-2.7-1.7,1.1-3.1,2.7-3.7,4.7-.3,1-.4,2.1-.3,3.1-1.1-1.9-2.2-3.9-3.2-6,1.4-1,2.5-2.5,3.2-4.1.8-1.9,1-3.8.5-5.5-1.8.9-3.3,2.3-4.2,4.2-.5,1-.7,2-.7,3-.7-1.6-1.4-3.3-2.1-4.9-.2-.4-.3-.9-.5-1.3,1.5-.9,2.8-2.2,3.7-3.8,1-1.8,1.4-3.7,1.1-5.5-1.9.7-3.5,1.9-4.6,3.8-.6,1-.9,2-1,3-.7-2.2-1.3-4.4-1.9-6.6,1.6-.7,3.1-1.9,4.1-3.3,1.3-1.7,1.8-3.5,1.7-5.3-2,.5-3.8,1.5-5,3.2-.6.8-1.1,1.8-1.3,2.8,0,0,0,.1,0,.2-.5-2.2-.8-4.5-1.1-6.8,1.7-.5,3.2-1.5,4.4-2.9.7-.8,1.2-1.6,1.6-2.5.4-.9.6-1.7.7-2.6-2,.3-3.9,1.1-5.3,2.7-.8.8-1.3,1.8-1.7,2.8-.2-2.3-.3-4.6-.4-6.8,1.7-.4,3.3-1.2,4.7-2.4,1.6-1.4,2.5-3.1,2.8-4.8-2,0-4,.7-5.6,2.1-.8.7-1.5,1.6-2,2.6,0-2.3.1-4.6.3-6.8,1.8-.2,3.5-.8,5-1.9.8-.6,1.5-1.3,2-2.1.5-.8,1-1.6,1.3-2.4-2-.2-4.1.3-5.8,1.5-.9.7-1.6,1.5-2.2,2.4.3-2.3.6-4.6,1.1-6.8,1.8,0,3.5-.4,5.1-1.3,1.8-1,3.2-2.5,3.8-4.1-2-.4-4-.2-5.9.9-.9.5-1.7,1.2-2.4,1.9,0,0,0,0,0,.1.5-2.2,1.1-4.4,1.8-6.6,1.8.2,3.6,0,5.3-.7,1.9-.8,3.2-2.2,4.2-3.7-1-.3-2-.5-3-.4-1,0-2.1.2-3,.6-1.1.5-2,1.2-2.8,2,.7-2.2,1.6-4.4,2.5-6.6,1.8.4,3.6.4,5.4-.2,2-.6,3.6-1.7,4.6-3.2-1.8-.8-3.9-1-6-.4-1,.3-2,.8-2.7,1.4-.1.1-.2.2-.4.3,1-2.2,2.1-4.3,3.3-6.3,1.7.6,3.6.8,5.5.5,1-.2,1.9-.5,2.7-1,.4-.2.8-.5,1.1-.8.4-.3.7-.6,1-.9-.9-.5-1.8-.9-2.8-1.1-1-.2-2.1-.2-3.1,0-1.3.2-2.4.8-3.4,1.5.7-1.2,1.4-2.4,2.2-3.5.6-.9,1.2-1.7,1.8-2.6,1.6.8,3.5,1.2,5.4,1.1,2.1-.2,3.9-.9,5.2-2.1-1.6-1.2-3.6-1.8-5.7-1.7-1.1,0-2.1.3-3,.8-.2.1-.5.3-.7.4,1.5-2,3-3.9,4.7-5.8,1.6,1.1,3.5,1.7,5.4,1.7,1,0,2-.1,2.9-.4.4-.1.9-.3,1.3-.5.4-.2.8-.4,1.2-.7-.7-.7-1.6-1.2-2.5-1.6-.9-.4-2-.7-3-.7-1.5,0-2.9.3-4.2,1,.6-.6,1.1-1.2,1.7-1.8,1.2-1.3,2.5-2.6,3.9-3.7,1.5,1.3,3.3,2.1,5.3,2.3,2.1.3,4,0,5.5-1-1.3-1.5-3.1-2.6-5.2-2.9-1-.2-2.1-.1-3.1.1-.5.1-1.1.4-1.6.6,1.2-1,2.4-2,3.5-3.1,1.8,0,3.6-.6,5.3-1.7.9-.6,1.8-1.4,2.4-2.2.7-.8,1.2-1.7,1.5-2.7-.5,0-1.1-.1-1.6-.1-.5,0-1.1.1-1.6.2-1.1.3-2.1.7-3.1,1.3-1.7,1.2-2.9,2.8-3.4,4.6-.5.3-.9.7-1.4,1-.8.6-1.5,1.2-2.3,1.9.3-.5.6-1,.8-1.5.4-.9.7-1.9.9-3,.3-2.1-.2-4.3-1.2-6-1.6,1.5-2.7,3.4-2.9,5.6-.2,2.1.4,4.1,1.5,5.7-2,1.7-3.9,3.5-5.7,5.4.6-1.3,1-2.7,1-4.2,0-1.1-.1-2.2-.4-3.1-.3-1-.7-1.9-1.3-2.7-.4.4-.7.8-1,1.3-.3.5-.5,1-.7,1.5-.4,1-.6,2.1-.6,3.2,0,2.1.7,3.9,1.9,5.4-1.3,1.4-2.5,2.7-3.7,4.2-.4.5-.9,1.1-1.3,1.6,0-.3.2-.6.2-.9.2-1,.3-2,.2-3.1-.2-2.2-1.1-4.1-2.4-5.6-1.2,1.8-1.9,3.9-1.7,6.1.2,2,1.1,3.7,2.4,5-1.5,1.9-2.8,4-4.1,6,.2-1.2.2-2.4,0-3.7-.2-1.1-.6-2.1-1.1-3-.5-.9-1.1-1.7-1.9-2.4-.3.5-.5.9-.7,1.4-.2.5-.3,1-.4,1.6-.2,1.1-.1,2.2,0,3.3.4,1.9,1.5,3.5,2.8,4.7-1.2,2.1-2.3,4.2-3.4,6.3,0-.1,0-.3,0-.4,0-1-.1-2-.4-3.1-.6-2.1-1.9-3.8-3.6-5-.8,2-1,4.2-.3,6.3.7,1.9,1.9,3.3,3.3,4.3-1,2.2-1.8,4.4-2.6,6.6,0-1.1-.4-2.2-.9-3.3-.5-1-1-1.9-1.7-2.7-.7-.8-1.5-1.4-2.4-1.9-.7,2-.5,4.3.4,6.3.8,1.8,2.1,3.1,3.7,3.9-.7,2.3-1.3,4.6-1.9,6.9,0-.1,0-.3,0-.4-.2-1-.5-2-1.1-2.9-1.1-1.9-2.7-3.3-4.6-4.1-.4,2.1,0,4.4,1,6.3,1,1.7,2.5,2.8,4.2,3.5-.5,2.3-.8,4.6-1.1,7-.3-1-.8-2.1-1.6-3-1.3-1.8-3-3-4.9-3.6,0,1.1,0,2.1.3,3.2.3,1,.8,2,1.5,2.9,1.2,1.6,2.8,2.6,4.5,3-.2,2.4-.3,4.8-.3,7.2-.4-1-1-2-1.8-3-1.5-1.6-3.4-2.7-5.4-3,.1,2.2.9,4.3,2.4,5.9,1.3,1.4,3,2.2,4.8,2.5,0,2.4.2,4.8.4,7.1-.5-1-1.2-1.9-2.2-2.7-1.7-1.4-3.6-2.3-5.6-2.4.1,1.1.5,2.1,1,3.1.5,1,1.2,1.8,2,2.5,1.5,1.3,3.3,1.9,5.1,2,.3,2.4.7,4.7,1.2,7.1,0,0-.1-.2-.2-.3-.6-.8-1.3-1.6-2.2-2.2-1.8-1.3-3.9-1.9-5.8-1.8.5,2.1,1.8,4,3.6,5.2,1.6,1.1,3.5,1.5,5.2,1.4.5,2.3,1.2,4.6,1.9,6.8-.7-.8-1.6-1.5-2.6-2.1-1.9-1.1-4-1.4-6-1.2.8,2,2.2,3.8,4.2,4.8,1.7.9,3.6,1.2,5.3.9.8,2.2,1.6,4.3,2.5,6.4-.8-.7-1.3-1.3-2.8-1.7-2-.9-4.1-1-6.1-.5,1,1.9,2.5,3.5,4.6,4.3,1.8.7,3.6.8,5.3.3,1,2.1,2.1,4.1,3.2,6.1-.8-.6-1.8-1.1-2.9-1.4-2.1-.6-4.2-.6-6.1.1.6.9,1.3,1.7,2.2,2.4.9.6,1.9,1.1,2.9,1.4,1.1.3,2.1.4,3.1.3.8,0,1.5-.3,2.2-.5,1.2,1.9,2.5,3.8,3.9,5.7-.9-.5-1.9-.9-3-1.1-2.2-.4-4.2-.1-6.1.8,1.3,1.7,3.3,2.9,5.5,3.2,1.9.3,3.7,0,5.3-.8,1,1.3,2.1,2.5,3.1,3.7Z"/>
    </g>
  </g>
  <path class="st0" d="M95.5,151.7c-40.8,0-74-33.2-74-74S54.7,3.8,95.5,3.8s74,33.2,74,74-33.2,74-74,74ZM95.5,6.1C55.9,6.1,23.8,38.3,23.8,77.8s32.2,71.7,71.7,71.7,71.7-32.2,71.7-71.7S135,6.1,95.5,6.1Z"/>
</svg>