<?xml version="1.0" encoding="UTF-8"?>
<svg id="Layer_1" data-name="Layer 1" xmlns="http://www.w3.org/2000/svg" viewBox="0 0 351.38 281.22">
  <path d="M351.38,54.77l-145,46.05-24.28,7.72-5.27,1.67-6.5699-2.04-24.23-7.5099L15.2,60.09l-.0099,11.95v.26l-.02,43.76c2.89,1.36,4.9,4.29,4.9,7.7,0,2.44-1.03,4.64-2.6801,6.19l6.08,37.11H.04l6.04-36.78c-1.86-1.55-3.04-3.9-3.04-6.52,0-3.42,2.02-6.38,4.94-7.72v-.0099l.03-45.95v-1.29l.0099-10.93L.22,55.44,174.76,0l176.62,54.77Z" fill="#fff"/>
  <line x1="17.07" y1="72.88" x2="17.04" y2="72.87" fill="#fff"/>
  <polygon points="171.22 280.61 153.73 155.65 150.61 133.37 147.1 131.77 147.09 131.77 17.07 72.88 147.82 113.43 170.33 120.41 170.36 124.56 170.45 142.35 170.49 148.06 170.49 148.07 171.22 280.61" fill="#fff"/>
  <line x1="17.07" y1="72.88" x2="17.04" y2="72.87" fill="#fff"/>
  <line x1="146.03" y1="100.66" x2="141.41" y2="67.64" fill="#fff"/>
  <line x1="170.26" y1="108.17" x2="170.03" y2="66.01" fill="#fff"/>
  <line x1="335.34" y1="73.4" x2="335.33" y2="73.4" fill="#fff" stroke="#231f20" stroke-miterlimit="10"/>
  <polygon points="335.33 73.4 206.67 131.68 201.75 133.9 198.78 155.18 181.14 281.22 181.89 147.53 181.91 142.89 182.02 124.03 182.04 120.94 204.54 113.96 335.33 73.4" fill="#fff"/>
  <line x1="335.34" y1="73.4" x2="335.33" y2="73.4" fill="#fff" stroke="#231f20" stroke-miterlimit="10"/>
  <line x1="210.95" y1="68.18" x2="206.38" y2="100.82" fill="#fff"/>
  <line x1="182.34" y1="66.54" x2="182.1" y2="108.54" fill="#fff"/>
  <line x1="6.09" y1="130.22" x2="6.08" y2="130.28" fill="#fff"/>
  <line x1=".04" y1="167.06" y2="167.33" fill="#fff"/>
</svg>